<?xml version="1.0" encoding="utf-8"?>
<!-- Generator: Adobe Illustrator 25.0.1, SVG Export Plug-In . SVG Version: 6.00 Build 0)  -->
<svg version="1.2" baseProfile="tiny" id="레이어_1"
	 xmlns="http://www.w3.org/2000/svg" xmlns:xlink="http://www.w3.org/1999/xlink" x="0px" y="0px" viewBox="0 0 2048 835.82"
	 overflow="visible" xml:space="preserve">
<g>
	<g>
		<g>
			<g>
				<g>
					<g>
						<g>
							<g>
								<path fill="#003764" d="M653.2513,405.3518c-47.9351-32.5777-109.3047-19.3118-141.5726,29.6699
									c-26.84,40.9406-67.4636,46.0346-83.1115,46.0346c-51.3252,0-86.3444-36.077-96.7531-73.3883
									c0,0-0.5089-1.8893-0.6421-2.3163c-4.0916-15.5966-5.1261-23.0037-5.1261-39.5529
									c0-89.1775,91.5684-188.5173,223.3398-188.5173c134.9969,0,212.2577,102.7644,232.2203,159.894
									c-0.3997-1.0739-0.7247-2.0297-1.0497-3.037C742.257,222.4157,636.3296,142.114,511.5455,142.114
									c-156.8955,0-284.1684,127.2063-284.1684,284.235c0,140.3231,101.2082,260.4246,241.6251,260.4246
									c111.9348,0,187.1922-62.7567,221.6632-149.2892C709.6207,490.1367,696.2336,434.5434,653.2513,405.3518z"/>
							</g>
							<g>
								<path fill="#E4032E" d="M783.3461,342.6933c-16.6512-55.7338-94.4095-165.4117-233.9604-165.4117
									c-131.7714,0-223.3398,99.3398-223.3398,188.5173c0,16.5493,1.0345,23.9563,5.1261,39.5529
									c-1.7127-6.8308-2.5867-13.6295-2.5867-20.2797c0-92.9007,92.9946-157.2526,188.6032-157.2526
									c129.46,0,234.3793,104.9234,234.3793,234.3288c0,101.4394-58.3912,189.3046-143.1874,231.4794v0.0784
									C717.7325,654.102,795.8199,549.3506,795.8199,426.349C795.8199,397.2361,791.9169,371.5598,783.3461,342.6933z"/>
							</g>
						</g>
					</g>
				</g>
			</g>
		</g>
	</g>
			<g>
				<g>
					<g>
						<g>
							<g>
								<path fill="#003764" d="M653.2513,405.3518c-47.9351-32.5777-109.3047-19.3118-141.5726,29.6699
									c-26.84,40.9406-67.4636,46.0346-83.1115,46.0346c-51.3252,0-86.3444-36.077-96.7531-73.3883
									c0,0-0.5089-1.8893-0.6421-2.3163c-4.0916-15.5966-5.1261-23.0037-5.1261-39.5529
									c0-89.1775,91.5684-188.5173,223.3398-188.5173c134.9969,0,212.2577,102.7644,232.2203,159.894
									c-0.3997-1.0739-0.7247-2.0297-1.0497-3.037C742.257,222.4157,636.3296,142.114,511.5455,142.114
									c-156.8955,0-284.1684,127.2063-284.1684,284.235c0,140.3231,101.2082,260.4246,241.6251,260.4246
									c111.9348,0,187.1922-62.7567,221.6632-149.2892C709.6207,490.1367,696.2336,434.5434,653.2513,405.3518z"/>
							</g>
							<g>
								<path fill="#E4032E" d="M783.3461,342.6933c-16.6512-55.7338-94.4095-165.4117-233.9604-165.4117
									c-131.7714,0-223.3398,99.3398-223.3398,188.5173c0,16.5493,1.0345,23.9563,5.1261,39.5529
									c-1.7127-6.8308-2.5867-13.6295-2.5867-20.2797c0-92.9007,92.9946-157.2526,188.6032-157.2526
									c129.46,0,234.3793,104.9234,234.3793,234.3288c0,101.4394-58.3912,189.3046-143.1874,231.4794v0.0784
									C717.7325,654.102,795.8199,549.3506,795.8199,426.349C795.8199,397.2361,791.9169,371.5598,783.3461,342.6933z"/>
							</g>
						</g>
					</g>
				</g>
			</g>
		</g>
	</g>
	<g>
		<path fill="#FFFFFF" d="M1090.1744,428.1302H941.7009V290.4275h34.9147v37.1975h79.2943v-37.1975h34.2645V428.1302z
			 M1055.9099,357.3212h-79.2943v41.4423h79.2943V357.3212z M1156.09,508.076c0,9.5769-1.9591,18.5491-5.8745,26.9221
			s-9.1368,15.7155-15.663,22.0272c-6.7461,6.306-14.6337,11.3089-23.6583,15.0113c-9.0304,3.6968-18.5476,5.5452-28.5519,5.5452
			c-10.0085,0-19.5797-1.8484-28.7166-5.5452c-9.1368-3.7024-17.0812-8.7053-23.8217-15.0113
			c-6.5247-6.3118-11.7462-13.6542-15.6615-22.0272c-3.9154-8.373-5.8745-17.3452-5.8745-26.9221
			c0-9.5684,1.9591-18.5973,5.8745-27.0811c3.9153-8.4838,9.1368-15.8773,15.6615-22.1891
			c6.7405-6.3089,14.6848-11.3089,23.8217-15.0113c9.1368-3.6967,18.708-5.548,28.7166-5.548
			c10.0043,0,19.5215,1.8512,28.5519,5.548c9.0247,3.7025,16.9122,8.7024,23.6583,15.0113
			c6.5261,6.3117,11.7476,13.7053,15.663,22.1891S1156.09,498.5076,1156.09,508.076z M1121.4989,507.7495
			c0-10.6559-3.9154-19.8466-11.7476-27.5695c-7.8308-7.72-17.0797-11.5843-27.7356-11.5843
			c-10.6615,0-19.8551,3.8643-27.5737,11.5843c-7.7242,7.7229-11.5844,16.9136-11.5844,27.5695
			c0,10.6616,3.8601,19.7983,11.5844,27.4105c7.7186,7.6149,16.9122,11.4224,27.5737,11.4224
			c10.6559,0,19.9048-3.8075,27.7356-11.4224C1117.5835,527.5479,1121.4989,518.4111,1121.4989,507.7495z M1144.994,284.2265
			h35.2412v150.7577h-35.2412v-33.938h-41.4423V372.006h41.4423v-30.0226h-41.4423v-29.0402h41.4423V284.2265z"/>
		<path fill="#FFFFFF" d="M1251.9794,495.3532v-31.3259h261.0513v31.3259h-112.9043v73.0918h-35.5692v-73.0918H1251.9794z
			 M1272.8623,292.3838h219.2839v126.9361h-219.2839V292.3838z M1457.2316,323.3831h-149.4531v64.9373h149.4531V323.3831z"/>
		<path fill="#FFFFFF" d="M1569.6865,338.3945v-29.6933h66.5701v-27.7398h37.5254v27.7398h63.3048v29.6933h-68.5262l71.137,72.4416
			l-23.4951,21.8625l-61.347-63.6285l-60.369,68.8499l-24.1467-22.5156l71.1356-77.01H1569.6865z M1796.4762,508.076
			c0,9.5769-1.9591,18.5491-5.8745,26.9221s-9.1368,15.7155-15.6615,22.0272c-6.7461,6.306-14.6337,11.3089-23.6583,15.0113
			c-9.0304,3.6968-18.5491,5.5452-28.5533,5.5452c-10.0085,0-19.5784-1.8484-28.7152-5.5452
			c-9.1367-3.7024-17.0811-8.7053-23.8215-15.0113c-6.5261-6.3118-11.7476-13.6542-15.663-22.0272s-5.8745-17.3452-5.8745-26.9221
			c0-9.5684,1.9591-18.5973,5.8745-27.0811s9.1368-15.8773,15.663-22.1891c6.7405-6.3089,14.6848-11.3089,23.8215-15.0113
			c9.1368-3.6967,18.7067-5.548,28.7152-5.548c10.0043,0,19.5229,1.8512,28.5533,5.548
			c9.0247,3.7025,16.9122,8.7024,23.6583,15.0113c6.5247,6.3117,11.7461,13.7053,15.6615,22.1891
			S1796.4762,498.5076,1796.4762,508.076z M1761.8866,507.7495c0-10.6559-3.9154-19.8466-11.7476-27.5695
			c-7.8308-7.72-17.0812-11.5843-27.7371-11.5843c-10.6615,0-19.8538,3.8643-27.5723,11.5843
			c-7.7244,7.7229-11.5844,16.9136-11.5844,27.5695c0,10.6616,3.86,19.7983,11.5844,27.4105
			c7.7185,7.6149,16.9108,11.4224,27.5723,11.4224c10.6559,0,19.9062-3.8075,27.7371-11.4224
			C1757.9712,527.5479,1761.8866,518.4111,1761.8866,507.7495z M1785.3802,443.1415v-64.6109h-49.5995v-30.3463h49.5995v-63.9578
			h35.2427v158.915H1785.3802z"/>
	</g>
</g>
</svg>
